<mxfile host="app.diagrams.net" agent="Mozilla/5.0 (Macintosh; Intel Mac OS X 10_15_7) AppleWebKit/537.36 (KHTML, like Gecko) Chrome/133.0.0.0 Safari/537.36" version="26.1.0">
  <diagram name="第 1 页" id="MYSAfdLSeYGouobJKEKr">
    <mxGraphModel dx="984" dy="597" grid="1" gridSize="10" guides="1" tooltips="1" connect="1" arrows="1" fold="1" page="1" pageScale="1" pageWidth="827" pageHeight="1169" math="0" shadow="0">
      <root>
        <mxCell id="0" />
        <mxCell id="1" parent="0" />
        <mxCell id="_Tk1pKzcCHMIHS_q4Bhh-1" value="LB" style="rounded=1;whiteSpace=wrap;html=1;" vertex="1" parent="1">
          <mxGeometry x="294" y="130" width="120" height="60" as="geometry" />
        </mxCell>
        <mxCell id="_Tk1pKzcCHMIHS_q4Bhh-3" style="edgeStyle=orthogonalEdgeStyle;rounded=0;orthogonalLoop=1;jettySize=auto;html=1;entryX=0;entryY=0.5;entryDx=0;entryDy=0;" edge="1" parent="1" source="_Tk1pKzcCHMIHS_q4Bhh-2" target="_Tk1pKzcCHMIHS_q4Bhh-1">
          <mxGeometry relative="1" as="geometry" />
        </mxCell>
        <mxCell id="_Tk1pKzcCHMIHS_q4Bhh-2" value="client" style="rounded=0;whiteSpace=wrap;html=1;" vertex="1" parent="1">
          <mxGeometry x="20" y="130" width="120" height="60" as="geometry" />
        </mxCell>
        <mxCell id="_Tk1pKzcCHMIHS_q4Bhh-5" value="" style="rounded=0;whiteSpace=wrap;html=1;" vertex="1" parent="1">
          <mxGeometry x="100" y="250" width="240" height="410" as="geometry" />
        </mxCell>
        <mxCell id="_Tk1pKzcCHMIHS_q4Bhh-6" value="" style="rounded=0;whiteSpace=wrap;html=1;" vertex="1" parent="1">
          <mxGeometry x="390" y="250" width="220" height="410" as="geometry" />
        </mxCell>
        <mxCell id="_Tk1pKzcCHMIHS_q4Bhh-7" value="az A" style="text;html=1;align=center;verticalAlign=middle;resizable=0;points=[];autosize=1;strokeColor=none;fillColor=none;" vertex="1" parent="1">
          <mxGeometry x="135" y="218" width="50" height="30" as="geometry" />
        </mxCell>
        <mxCell id="_Tk1pKzcCHMIHS_q4Bhh-8" value="az B" style="text;html=1;align=center;verticalAlign=middle;resizable=0;points=[];autosize=1;strokeColor=none;fillColor=none;" vertex="1" parent="1">
          <mxGeometry x="495" y="218" width="50" height="30" as="geometry" />
        </mxCell>
        <mxCell id="_Tk1pKzcCHMIHS_q4Bhh-10" value="API Router GW" style="rounded=1;whiteSpace=wrap;html=1;" vertex="1" parent="1">
          <mxGeometry x="175" y="360" width="90" height="30" as="geometry" />
        </mxCell>
        <mxCell id="_Tk1pKzcCHMIHS_q4Bhh-19" style="edgeStyle=orthogonalEdgeStyle;rounded=0;orthogonalLoop=1;jettySize=auto;html=1;" edge="1" parent="1" source="_Tk1pKzcCHMIHS_q4Bhh-11" target="_Tk1pKzcCHMIHS_q4Bhh-13">
          <mxGeometry relative="1" as="geometry" />
        </mxCell>
        <mxCell id="_Tk1pKzcCHMIHS_q4Bhh-22" value="&amp;nbsp;RW" style="edgeLabel;html=1;align=center;verticalAlign=middle;resizable=0;points=[];" vertex="1" connectable="0" parent="_Tk1pKzcCHMIHS_q4Bhh-19">
          <mxGeometry x="-0.6414" y="4" relative="1" as="geometry">
            <mxPoint as="offset" />
          </mxGeometry>
        </mxCell>
        <mxCell id="_Tk1pKzcCHMIHS_q4Bhh-11" value="Service A" style="rounded=1;whiteSpace=wrap;html=1;" vertex="1" parent="1">
          <mxGeometry x="115" y="450" width="65" height="30" as="geometry" />
        </mxCell>
        <mxCell id="_Tk1pKzcCHMIHS_q4Bhh-20" style="edgeStyle=orthogonalEdgeStyle;rounded=0;orthogonalLoop=1;jettySize=auto;html=1;entryX=0.5;entryY=0;entryDx=0;entryDy=0;" edge="1" parent="1" source="_Tk1pKzcCHMIHS_q4Bhh-12" target="_Tk1pKzcCHMIHS_q4Bhh-13">
          <mxGeometry relative="1" as="geometry" />
        </mxCell>
        <mxCell id="_Tk1pKzcCHMIHS_q4Bhh-21" value="RW" style="edgeLabel;html=1;align=center;verticalAlign=middle;resizable=0;points=[];" vertex="1" connectable="0" parent="_Tk1pKzcCHMIHS_q4Bhh-20">
          <mxGeometry x="-0.3793" y="1" relative="1" as="geometry">
            <mxPoint x="1" as="offset" />
          </mxGeometry>
        </mxCell>
        <mxCell id="_Tk1pKzcCHMIHS_q4Bhh-12" value="Service B" style="rounded=1;whiteSpace=wrap;html=1;" vertex="1" parent="1">
          <mxGeometry x="200" y="450" width="65" height="30" as="geometry" />
        </mxCell>
        <mxCell id="_Tk1pKzcCHMIHS_q4Bhh-39" style="edgeStyle=orthogonalEdgeStyle;rounded=0;orthogonalLoop=1;jettySize=auto;html=1;startArrow=classic;startFill=1;" edge="1" parent="1" source="_Tk1pKzcCHMIHS_q4Bhh-13" target="_Tk1pKzcCHMIHS_q4Bhh-25">
          <mxGeometry relative="1" as="geometry" />
        </mxCell>
        <mxCell id="_Tk1pKzcCHMIHS_q4Bhh-40" value="&amp;nbsp;DRC" style="edgeLabel;html=1;align=center;verticalAlign=middle;resizable=0;points=[];" vertex="1" connectable="0" parent="_Tk1pKzcCHMIHS_q4Bhh-39">
          <mxGeometry x="0.1806" y="-1" relative="1" as="geometry">
            <mxPoint as="offset" />
          </mxGeometry>
        </mxCell>
        <mxCell id="_Tk1pKzcCHMIHS_q4Bhh-13" value="Database A" style="rounded=1;whiteSpace=wrap;html=1;" vertex="1" parent="1">
          <mxGeometry x="157.5" y="560" width="72.5" height="30" as="geometry" />
        </mxCell>
        <mxCell id="_Tk1pKzcCHMIHS_q4Bhh-15" value="API Router GW" style="rounded=1;whiteSpace=wrap;html=1;" vertex="1" parent="1">
          <mxGeometry x="475" y="360" width="90" height="30" as="geometry" />
        </mxCell>
        <mxCell id="_Tk1pKzcCHMIHS_q4Bhh-26" style="edgeStyle=orthogonalEdgeStyle;rounded=0;orthogonalLoop=1;jettySize=auto;html=1;" edge="1" parent="1" source="_Tk1pKzcCHMIHS_q4Bhh-16" target="_Tk1pKzcCHMIHS_q4Bhh-25">
          <mxGeometry relative="1" as="geometry" />
        </mxCell>
        <mxCell id="_Tk1pKzcCHMIHS_q4Bhh-28" value="&amp;nbsp;RW" style="edgeLabel;html=1;align=center;verticalAlign=middle;resizable=0;points=[];" vertex="1" connectable="0" parent="_Tk1pKzcCHMIHS_q4Bhh-26">
          <mxGeometry x="-0.6571" y="-3" relative="1" as="geometry">
            <mxPoint as="offset" />
          </mxGeometry>
        </mxCell>
        <mxCell id="_Tk1pKzcCHMIHS_q4Bhh-16" value="Service A" style="rounded=1;whiteSpace=wrap;html=1;" vertex="1" parent="1">
          <mxGeometry x="450" y="410" width="65" height="30" as="geometry" />
        </mxCell>
        <mxCell id="_Tk1pKzcCHMIHS_q4Bhh-27" style="edgeStyle=orthogonalEdgeStyle;rounded=0;orthogonalLoop=1;jettySize=auto;html=1;" edge="1" parent="1" source="_Tk1pKzcCHMIHS_q4Bhh-17" target="_Tk1pKzcCHMIHS_q4Bhh-25">
          <mxGeometry relative="1" as="geometry" />
        </mxCell>
        <mxCell id="_Tk1pKzcCHMIHS_q4Bhh-29" value="&amp;nbsp;RW" style="edgeLabel;html=1;align=center;verticalAlign=middle;resizable=0;points=[];" vertex="1" connectable="0" parent="_Tk1pKzcCHMIHS_q4Bhh-27">
          <mxGeometry x="-0.6632" y="-2" relative="1" as="geometry">
            <mxPoint as="offset" />
          </mxGeometry>
        </mxCell>
        <mxCell id="_Tk1pKzcCHMIHS_q4Bhh-17" value="Service B" style="rounded=1;whiteSpace=wrap;html=1;" vertex="1" parent="1">
          <mxGeometry x="530" y="410" width="65" height="30" as="geometry" />
        </mxCell>
        <mxCell id="_Tk1pKzcCHMIHS_q4Bhh-25" value="Database B" style="rounded=1;whiteSpace=wrap;html=1;" vertex="1" parent="1">
          <mxGeometry x="482.5" y="555" width="65" height="30" as="geometry" />
        </mxCell>
        <mxCell id="_Tk1pKzcCHMIHS_q4Bhh-32" value="&amp;nbsp;ID generator" style="rounded=1;whiteSpace=wrap;html=1;" vertex="1" parent="1">
          <mxGeometry x="270" y="495" width="60" height="40" as="geometry" />
        </mxCell>
        <mxCell id="_Tk1pKzcCHMIHS_q4Bhh-33" value="&amp;nbsp;ID generator" style="rounded=1;whiteSpace=wrap;html=1;" vertex="1" parent="1">
          <mxGeometry x="400" y="455" width="60" height="40" as="geometry" />
        </mxCell>
        <mxCell id="_Tk1pKzcCHMIHS_q4Bhh-35" style="edgeStyle=orthogonalEdgeStyle;rounded=0;orthogonalLoop=1;jettySize=auto;html=1;entryX=0.5;entryY=0;entryDx=0;entryDy=0;" edge="1" parent="1" source="_Tk1pKzcCHMIHS_q4Bhh-1" target="_Tk1pKzcCHMIHS_q4Bhh-15">
          <mxGeometry relative="1" as="geometry">
            <Array as="points">
              <mxPoint x="354" y="270" />
              <mxPoint x="520" y="270" />
            </Array>
          </mxGeometry>
        </mxCell>
        <mxCell id="_Tk1pKzcCHMIHS_q4Bhh-34" style="edgeStyle=orthogonalEdgeStyle;rounded=0;orthogonalLoop=1;jettySize=auto;html=1;" edge="1" parent="1" source="_Tk1pKzcCHMIHS_q4Bhh-1" target="_Tk1pKzcCHMIHS_q4Bhh-10">
          <mxGeometry relative="1" as="geometry">
            <Array as="points">
              <mxPoint x="354" y="270" />
              <mxPoint x="230" y="270" />
            </Array>
          </mxGeometry>
        </mxCell>
        <mxCell id="_Tk1pKzcCHMIHS_q4Bhh-36" value="router by uid" style="edgeLabel;html=1;align=center;verticalAlign=middle;resizable=0;points=[];" vertex="1" connectable="0" parent="_Tk1pKzcCHMIHS_q4Bhh-34">
          <mxGeometry x="0.6259" y="1" relative="1" as="geometry">
            <mxPoint as="offset" />
          </mxGeometry>
        </mxCell>
        <mxCell id="_Tk1pKzcCHMIHS_q4Bhh-38" value="router by uid" style="edgeLabel;html=1;align=center;verticalAlign=middle;resizable=0;points=[];" vertex="1" connectable="0" parent="1">
          <mxGeometry x="515" y="300" as="geometry" />
        </mxCell>
      </root>
    </mxGraphModel>
  </diagram>
</mxfile>
